<svg width="21" height="21" viewBox="0 0 21 21" fill="none" xmlns="http://www.w3.org/2000/svg">
<mask id="path-1-inside-1_173_1890" fill="white">
<path d="M10.9844 20.2008C16.5072 20.2008 20.9844 15.7237 20.9844 10.2008C20.9844 4.67796 16.5072 0.200806 10.9844 0.200806C5.46153 0.200806 0.984375 4.67796 0.984375 10.2008C0.984375 15.7237 5.46153 20.2008 10.9844 20.2008Z"/>
<path d="M11.9844 6.20081C11.9844 6.75309 11.5367 7.20081 10.9844 7.20081C10.4321 7.20081 9.98438 6.75309 9.98438 6.20081C9.98438 5.64852 10.4321 5.20081 10.9844 5.20081C11.5367 5.20081 11.9844 5.64852 11.9844 6.20081Z"/>
</mask>
<path d="M10.4844 14.2008C10.4844 14.4769 10.7082 14.7008 10.9844 14.7008C11.2605 14.7008 11.4844 14.4769 11.4844 14.2008H10.4844ZM11.4844 10.2008C11.4844 9.92466 11.2605 9.70081 10.9844 9.70081C10.7082 9.70081 10.4844 9.92466 10.4844 10.2008H11.4844ZM11.4844 14.2008V10.2008H10.4844V14.2008H11.4844ZM19.9844 10.2008C19.9844 15.1714 15.9549 19.2008 10.9844 19.2008V21.2008C17.0595 21.2008 21.9844 16.2759 21.9844 10.2008H19.9844ZM10.9844 19.2008C6.01381 19.2008 1.98438 15.1714 1.98438 10.2008H-0.015625C-0.015625 16.2759 4.90924 21.2008 10.9844 21.2008V19.2008ZM1.98438 10.2008C1.98438 5.23024 6.01381 1.20081 10.9844 1.20081V-0.799194C4.90924 -0.799194 -0.015625 4.12567 -0.015625 10.2008H1.98438ZM10.9844 1.20081C15.9549 1.20081 19.9844 5.23024 19.9844 10.2008H21.9844C21.9844 4.12567 17.0595 -0.799194 10.9844 -0.799194V1.20081ZM10.9844 6.20081V8.20081C12.0889 8.20081 12.9844 7.30538 12.9844 6.20081H10.9844ZM10.9844 6.20081H8.98438C8.98438 7.30538 9.87981 8.20081 10.9844 8.20081V6.20081ZM10.9844 6.20081V4.20081C9.87981 4.20081 8.98438 5.09624 8.98438 6.20081H10.9844ZM10.9844 6.20081H12.9844C12.9844 5.09624 12.0889 4.20081 10.9844 4.20081V6.20081Z" fill="#999999" mask="url(#path-1-inside-1_173_1890)"/>
</svg>
