<svg width="24" height="24" viewBox="0 0 24 24" fill="none" xmlns="http://www.w3.org/2000/svg">
<path d="M11.5996 15.2008C13.2565 15.2008 14.5996 13.8577 14.5996 12.2008C14.5996 10.544 13.2565 9.20081 11.5996 9.20081C9.94276 9.20081 8.59961 10.544 8.59961 12.2008C8.59961 13.8577 9.94276 15.2008 11.5996 15.2008Z" stroke="#999999" stroke-linecap="round" stroke-linejoin="round"/>
<path d="M18.9996 15.2008C18.8665 15.5024 18.8268 15.837 18.8856 16.1614C18.9444 16.4858 19.0991 16.7851 19.3296 17.0208L19.3896 17.0808C19.5756 17.2666 19.7231 17.4871 19.8237 17.7299C19.9244 17.9727 19.9762 18.233 19.9762 18.4958C19.9762 18.7586 19.9244 19.0189 19.8237 19.2617C19.7231 19.5045 19.5756 19.7251 19.3896 19.9108C19.2039 20.0968 18.9833 20.2443 18.7405 20.3449C18.4977 20.4456 18.2374 20.4974 17.9746 20.4974C17.7118 20.4974 17.4515 20.4456 17.2087 20.3449C16.9659 20.2443 16.7454 20.0968 16.5596 19.9108L16.4996 19.8508C16.2639 19.6203 15.9646 19.4656 15.6402 19.4068C15.3158 19.348 14.9812 19.3877 14.6796 19.5208C14.3838 19.6476 14.1316 19.8581 13.9539 20.1263C13.7762 20.3946 13.6809 20.709 13.6796 21.0308V21.2008C13.6796 21.7312 13.4689 22.2399 13.0938 22.615C12.7187 22.9901 12.21 23.2008 11.6796 23.2008C11.1492 23.2008 10.6405 22.9901 10.2654 22.615C9.89032 22.2399 9.67961 21.7312 9.67961 21.2008V21.1108C9.67187 20.7798 9.56473 20.4588 9.37212 20.1895C9.17951 19.9202 8.91034 19.7151 8.59961 19.6008C8.29799 19.4677 7.96342 19.428 7.63902 19.4868C7.31463 19.5456 7.01529 19.7003 6.77961 19.9308L6.71961 19.9908C6.53386 20.1768 6.31329 20.3243 6.07049 20.4249C5.82769 20.5256 5.56744 20.5774 5.30461 20.5774C5.04178 20.5774 4.78152 20.5256 4.53873 20.4249C4.29593 20.3243 4.07536 20.1768 3.88961 19.9908C3.70366 19.8051 3.55614 19.5845 3.45549 19.3417C3.35484 19.0989 3.30304 18.8386 3.30304 18.5758C3.30304 18.313 3.35484 18.0527 3.45549 17.8099C3.55614 17.5671 3.70366 17.3466 3.88961 17.1608L3.94961 17.1008C4.18015 16.8651 4.33479 16.5658 4.39361 16.2414C4.45243 15.917 4.41272 15.5824 4.27961 15.2808C4.15285 14.985 3.94236 14.7328 3.67407 14.5551C3.40578 14.3774 3.0914 14.2821 2.76961 14.2808H2.59961C2.06918 14.2808 1.56047 14.0701 1.1854 13.695C0.810323 13.3199 0.599609 12.8112 0.599609 12.2808C0.599609 11.7504 0.810323 11.2417 1.1854 10.8666C1.56047 10.4915 2.06918 10.2808 2.59961 10.2808H2.68961C3.0206 10.2731 3.34161 10.1659 3.61091 9.97332C3.8802 9.78071 4.08533 9.51154 4.19961 9.20081C4.33272 8.89919 4.37243 8.56461 4.31361 8.24022C4.25479 7.91582 4.10015 7.61648 3.86961 7.38081L3.80961 7.32081C3.62366 7.13506 3.47614 6.91448 3.37549 6.67169C3.27484 6.42889 3.22304 6.16864 3.22304 5.90581C3.22304 5.64297 3.27484 5.38272 3.37549 5.13993C3.47614 4.89713 3.62366 4.67655 3.80961 4.49081C3.99536 4.30485 4.21593 4.15733 4.45873 4.05669C4.70152 3.95604 4.96178 3.90423 5.22461 3.90423C5.48744 3.90423 5.74769 3.95604 5.99049 4.05669C6.23329 4.15733 6.45386 4.30485 6.63961 4.49081L6.69961 4.55081C6.93529 4.78134 7.23463 4.93599 7.55902 4.99481C7.88342 5.05363 8.21799 5.01392 8.51961 4.88081H8.59961C8.89538 4.75404 9.14763 4.54356 9.3253 4.27527C9.50298 4.00698 9.59833 3.69259 9.59961 3.37081V3.20081C9.59961 2.67037 9.81032 2.16166 10.1854 1.78659C10.5605 1.41152 11.0692 1.20081 11.5996 1.20081C12.13 1.20081 12.6387 1.41152 13.0138 1.78659C13.3889 2.16166 13.5996 2.67037 13.5996 3.20081V3.29081C13.6009 3.61259 13.6962 3.92698 13.8739 4.19527C14.0516 4.46356 14.3038 4.67404 14.5996 4.80081C14.9012 4.93392 15.2358 4.97363 15.5602 4.91481C15.8846 4.85599 16.1839 4.70134 16.4196 4.47081L16.4796 4.41081C16.6654 4.22485 16.8859 4.07733 17.1287 3.97669C17.3715 3.87604 17.6318 3.82423 17.8946 3.82423C18.1574 3.82423 18.4177 3.87604 18.6605 3.97669C18.9033 4.07733 19.1239 4.22485 19.3096 4.41081C19.4956 4.59655 19.6431 4.81713 19.7437 5.05993C19.8444 5.30272 19.8962 5.56297 19.8962 5.82581C19.8962 6.08864 19.8444 6.34889 19.7437 6.59169C19.6431 6.83448 19.4956 7.05506 19.3096 7.24081L19.2496 7.30081C19.0191 7.53648 18.8644 7.83582 18.8056 8.16022C18.7468 8.48461 18.7865 8.81919 18.9196 9.12081V9.20081C19.0464 9.49657 19.2569 9.74882 19.5251 9.9265C19.7934 10.1042 20.1078 10.1995 20.4296 10.2008H20.5996C21.13 10.2008 21.6387 10.4115 22.0138 10.7866C22.3889 11.1617 22.5996 11.6704 22.5996 12.2008C22.5996 12.7312 22.3889 13.2399 22.0138 13.615C21.6387 13.9901 21.13 14.2008 20.5996 14.2008H20.5096C20.1878 14.2021 19.8734 14.2974 19.6051 14.4751C19.3369 14.6528 19.1264 14.905 18.9996 15.2008Z" stroke="#999999" stroke-linecap="round" stroke-linejoin="round"/>
</svg>
