<svg width="20" height="18" viewBox="0 0 20 18" fill="none" xmlns="http://www.w3.org/2000/svg">
<path d="M19.4294 14.9999C19.4294 15.4546 19.2488 15.8906 18.9273 16.2121C18.6058 16.5336 18.1698 16.7142 17.7151 16.7142H2.28655C1.83189 16.7142 1.39586 16.5336 1.07437 16.2121C0.752877 15.8906 0.572266 15.4546 0.572266 14.9999V5.57136C0.572266 5.1167 0.752877 4.68067 1.07437 4.35918C1.39586 4.03768 1.83189 3.85707 2.28655 3.85707H5.71512L7.42941 1.28564H12.5723L14.2866 3.85707H17.7151C18.1698 3.85707 18.6058 4.03768 18.9273 4.35918C19.2488 4.68067 19.4294 5.1167 19.4294 5.57136V14.9999Z" stroke="#BE52F2" stroke-linecap="round" stroke-linejoin="round"/>
<path d="M10.0008 13.2856C11.8944 13.2856 13.4294 11.7506 13.4294 9.85707C13.4294 7.96353 11.8944 6.4285 10.0008 6.4285C8.10729 6.4285 6.57227 7.96353 6.57227 9.85707C6.57227 11.7506 8.10729 13.2856 10.0008 13.2856Z" stroke="#BE52F2" stroke-linecap="round" stroke-linejoin="round"/>
</svg>
