<svg width="24" height="24" viewBox="0 0 24 24" fill="none" xmlns="http://www.w3.org/2000/svg">
<path d="M15.4283 5.143H17.1426C17.5972 5.143 18.0333 5.32361 18.3548 5.6451C18.6763 5.96659 18.8569 6.40263 18.8569 6.85728V18.8573C18.8569 19.3119 18.6763 19.748 18.3548 20.0695C18.0333 20.391 17.5972 20.5716 17.1426 20.5716H6.85686C6.40221 20.5716 5.96617 20.391 5.64468 20.0695C5.32319 19.748 5.14258 19.3119 5.14258 18.8573V6.85728C5.14258 6.40263 5.32319 5.96659 5.64468 5.6451C5.96617 5.32361 6.40221 5.143 6.85686 5.143H8.57115M9.42829 3.42871H14.5711C15.0445 3.42871 15.4283 3.81247 15.4283 4.28585V6.00014C15.4283 6.47353 15.0445 6.85728 14.5711 6.85728H9.42829C8.95491 6.85728 8.57115 6.47353 8.57115 6.00014V4.28585C8.57115 3.81247 8.95491 3.42871 9.42829 3.42871Z" stroke="#BE52F2" stroke-linecap="round" stroke-linejoin="round"/>
</svg>
