<svg width="24" height="24" viewBox="0 0 24 24" fill="none" xmlns="http://www.w3.org/2000/svg">
<path d="M19.7137 6.00014C19.7137 7.4203 16.2599 8.57157 11.9994 8.57157C7.73896 8.57157 4.28516 7.4203 4.28516 6.00014M19.7137 6.00014C19.7137 4.57998 16.2599 3.42871 11.9994 3.42871C7.73896 3.42871 4.28516 4.57998 4.28516 6.00014M19.7137 6.00014V18.0001C19.7137 19.423 16.2852 20.5716 11.9994 20.5716C7.71373 20.5716 4.28516 19.423 4.28516 18.0001V6.00014M19.7137 12.0001C19.7137 13.423 16.2852 14.5716 11.9994 14.5716C7.71373 14.5716 4.28516 13.423 4.28516 12.0001" stroke="#BE52F2" stroke-linecap="round" stroke-linejoin="round"/>
</svg>
