<svg width="24" height="24" viewBox="0 0 24 24" fill="none" xmlns="http://www.w3.org/2000/svg">
<path d="M13.714 3.42871H6.85686C6.40221 3.42871 5.96617 3.60932 5.64468 3.93081C5.32319 4.2523 5.14258 4.68834 5.14258 5.143V18.8573C5.14258 19.3119 5.32319 19.748 5.64468 20.0695C5.96617 20.391 6.40221 20.5716 6.85686 20.5716H17.1426C17.5972 20.5716 18.0333 20.391 18.3548 20.0695C18.6763 19.748 18.8569 19.3119 18.8569 18.8573V8.57157M13.714 3.42871L18.8569 8.57157M13.714 3.42871V8.57157H18.8569M15.4283 12.8573H8.57115M15.4283 16.2859H8.57115M10.2854 9.42871H8.57115" stroke="#BE52F2" stroke-linecap="round" stroke-linejoin="round"/>
</svg>
