<svg width="98" height="98" viewBox="0 0 98 98" fill="none" xmlns="http://www.w3.org/2000/svg">
<path d="M11.4994 97.2147H86.4994C92.4168 97.2147 97.2137 92.4178 97.2137 86.5004V11.5004C97.2137 5.58308 92.4168 0.786133 86.4994 0.786133H11.4994C5.58211 0.786133 0.785156 5.58308 0.785156 11.5004V86.5004C0.785156 92.4178 5.58211 97.2147 11.4994 97.2147ZM11.4994 97.2147L70.428 38.2861L97.2137 65.0718M38.2852 30.2504C38.2852 34.6884 34.6874 38.2861 30.2494 38.2861C25.8114 38.2861 22.2137 34.6884 22.2137 30.2504C22.2137 25.8124 25.8114 22.2147 30.2494 22.2147C34.6874 22.2147 38.2852 25.8124 38.2852 30.2504Z" stroke="#999999" stroke-linecap="round" stroke-linejoin="round"/>
</svg>
