<svg width="24" height="24" viewBox="0 0 24 24" fill="none" xmlns="http://www.w3.org/2000/svg">
<path d="M4.28516 6.85728L6.85658 3.42871H17.1423L19.7137 6.85728M4.28516 6.85728V18.8573C4.28516 19.3119 4.46577 19.748 4.78726 20.0695C5.10875 20.391 5.54479 20.5716 5.99944 20.5716H17.9994C18.4541 20.5716 18.8901 20.391 19.2116 20.0695C19.5331 19.748 19.7137 19.3119 19.7137 18.8573V6.85728M4.28516 6.85728H19.7137M15.428 10.2859C15.428 11.1952 15.0668 12.0672 14.4238 12.7102C13.7808 13.3532 12.9088 13.7144 11.9994 13.7144C11.0901 13.7144 10.2181 13.3532 9.57508 12.7102C8.93209 12.0672 8.57087 11.1952 8.57087 10.2859" stroke="#BE52F2" stroke-linecap="round" stroke-linejoin="round"/>
</svg>
